<svg xmlns="http://www.w3.org/2000/svg" version="1.1" xmlns:xlink="http://www.w3.org/1999/xlink" xmlns:svgjs="http://svgjs.dev/svgjs" viewBox="0 0 18.031668180752554 4.154797423217643"><g transform="matrix(1,0,0,1,6.3308150306023165,0.6820210211725937)"><rect width="18.031668180752554" height="18.031668180752554" x="-6.3308150306023165" y="-7.62045639994005" fill="#800000"></rect><g><path d=" M 0.126032797246995 0.459894511808571 Q 0.19864772016413784 0.32384586312472874 0.3321924059887683 0.24789232306197007 Q 0.4657370918133988 0.17193878299921161 0.6393451833854185 0.17193878299921161 Q 0.8596939149960587 0.17193878299921161 1.009931686548768 0.28962503738216716 Q 1.1601694581014772 0.4073112917651227 1.2035714809944822 0.6092976290748763 L 0.8513473721320193 0.6092976290748763 Q 0.8196305092486695 0.5425252861625611 0.7637086720596056 0.5074698061335956 Q 0.7077868348705415 0.4724143261046301 0.6343372576669948 0.4724143261046301 Q 0.5208242747160589 0.4724143261046301 0.4532172775173397 0.5533757918858123 Q 0.3856102803186205 0.6343372576669946 0.3856102803186205 0.7695512520644329 Q 0.3856102803186205 0.9064345550346791 0.4532172775173397 0.9873960208158614 Q 0.5208242747160589 1.0683574865970435 0.6343372576669948 1.0683574865970435 Q 0.7077868348705415 1.0683574865970435 0.7637086720596056 1.033302006568078 Q 0.8196305092486695 0.9982465265391126 0.8513473721320193 0.9314741836267973 L 1.2035714809944822 0.9314741836267973 Q 1.1601694581014772 1.133460520936551 1.009931686548768 1.2511467753195065 Q 0.8596939149960587 1.3688330297024622 0.6393451833854185 1.3688330297024622 Q 0.4657370918133988 1.3688330297024622 0.3321924059887683 1.2928794896397036 Q 0.19864772016413784 1.2169259495769449 0.126032797246995 1.0808773008931027 Q 0.05341787432985219 0.9448286522092604 0.05341787432985219 0.7695512520644329 Q 0.05341787432985219 0.5959431604924132 0.126032797246995 0.459894511808571 M 1.7026874084353496 0.18362394300886664 L 1.7026874084353496 1.3604864868384228 L 1.3755029281650049 1.3604864868384228 L 1.3755029281650049 0.18362394300886664 L 1.7026874084353496 0.18362394300886664 M 2.502258501679721 1.3604864868384228 L 2.268555301486618 0.9264662579083738 L 2.2334998214576522 0.9264662579083738 L 2.2334998214576522 1.3604864868384228 L 1.9063153411873077 1.3604864868384228 L 1.9063153411873077 0.18362394300886664 L 2.4221316901849432 0.18362394300886664 Q 2.5640229188736128 0.18362394300886664 2.662512124669278 0.23286854590669925 Q 2.761001330464943 0.28211314880453164 2.811080587649179 0.36808254030413756 Q 2.8611598448334155 0.45405193180374337 2.8611598448334155 0.5608876804634478 Q 2.8611598448334155 0.6810778977056152 2.7952221562075046 0.7720552149236447 Q 2.729284467581593 0.8630325321416743 2.602417016048194 0.9014266293162555 L 2.867837079124647 1.3604864868384228 L 2.502258501679721 1.3604864868384228 M 2.2334998214576522 0.7027789091521177 L 2.395422753020017 0.7027789091521177 Q 2.462195095932332 0.7027789091521177 2.4955812673884896 0.671062046268768 Q 2.5289674388446475 0.6393451833854182 2.5289674388446475 0.5792500747643344 Q 2.5289674388446475 0.5224935832888665 2.4947466131020857 0.48994206611911284 Q 2.4605257873595243 0.45739054894935915 2.395422753020017 0.45739054894935915 L 2.2334998214576522 0.45739054894935915 L 2.2334998214576522 0.7027789091521177 M 3.0589908427368337 0.459894511808571 Q 3.1316057656539766 0.32384586312472874 3.265150451478607 0.24789232306197007 Q 3.3986951373032377 0.17193878299921161 3.572303228875257 0.17193878299921161 Q 3.7926519604858973 0.17193878299921161 3.9428897320386067 0.28962503738216716 Q 4.093127503591316 0.4073112917651227 4.1365295264843205 0.6092976290748763 L 3.784305417621858 0.6092976290748763 Q 3.7525885547385083 0.5425252861625611 3.6966667175494443 0.5074698061335956 Q 3.6407448803603804 0.4724143261046301 3.5672953031568335 0.4724143261046301 Q 3.4537823202058977 0.4724143261046301 3.3861753230071785 0.5533757918858123 Q 3.3185683258084593 0.6343372576669946 3.3185683258084593 0.7695512520644329 Q 3.3185683258084593 0.9064345550346791 3.3861753230071785 0.9873960208158614 Q 3.4537823202058977 1.0683574865970435 3.5672953031568335 1.0683574865970435 Q 3.6407448803603804 1.0683574865970435 3.6966667175494443 1.033302006568078 Q 3.7525885547385083 0.9982465265391126 3.784305417621858 0.9314741836267973 L 4.1365295264843205 0.9314741836267973 Q 4.093127503591316 1.133460520936551 3.9428897320386067 1.2511467753195065 Q 3.7926519604858973 1.3688330297024622 3.572303228875257 1.3688330297024622 Q 3.3986951373032377 1.3688330297024622 3.265150451478607 1.2928794896397036 Q 3.1316057656539766 1.2169259495769449 3.0589908427368337 1.0808773008931027 Q 2.986375919819691 0.9448286522092604 2.986375919819691 0.7695512520644329 Q 2.986375919819691 0.5959431604924132 3.0589908427368337 0.459894511808571 M 5.052972597127158 1.1685160009655164 L 4.635645453925188 1.1685160009655164 L 4.572211728158488 1.3604864868384228 L 4.228334162160065 1.3604864868384228 L 4.65734646537169 0.18362394300886664 L 5.034610202826272 0.18362394300886664 L 5.461953197465089 1.3604864868384228 L 5.116406322893858 1.3604864868384228 L 5.052972597127158 1.1685160009655164 M 4.971176477059572 0.9181197150443343 L 4.844309025526173 0.5375173604441374 L 4.719110882565582 0.9181197150443343 L 4.971176477059572 0.9181197150443343 M 6.801546429104886 0.7703859063508368 Q 6.752301826207054 0.8580246064232506 6.652977966124984 0.9106078264666988 Q 6.553654106042916 0.9631910465101471 6.410093568781438 0.9631910465101471 L 6.248170637219074 0.9631910465101471 L 6.248170637219074 1.3604864868384228 L 5.920986156948729 1.3604864868384228 L 5.920986156948729 0.18362394300886664 L 6.410093568781438 0.18362394300886664 Q 6.551984797470108 0.18362394300886664 6.6513086575521765 0.2337032001931032 Q 6.750632517634246 0.28378245737733954 6.800711774818482 0.3722558117361572 Q 6.850791032002719 0.46072916609497494 6.850791032002719 0.5759114576187188 Q 6.850791032002719 0.6827472062784231 6.801546429104886 0.7703859063508368 M 6.516929317441143 0.5759114576187188 Q 6.516929317441143 0.4473746975125119 6.378376705898089 0.4473746975125119 L 6.248170637219074 0.4473746975125119 L 6.248170637219074 0.7027789091521177 L 6.378376705898089 0.7027789091521177 Q 6.516929317441143 0.7027789091521177 6.516929317441143 0.5759114576187188 M 7.025210955282998 0.28962503738216716 Q 6.972627735239549 0.24204974305714244 6.972627735239549 0.17026947442640372 Q 6.972627735239549 0.09681989722285689 7.025210955282998 0.04840994861142822 Q 7.077794175326447 -2.220446049250313e-16 7.164598221112456 -2.220446049250313e-16 Q 7.249732958325658 -2.220446049250313e-16 7.302316178369106 0.04840994861142822 Q 7.354899398412554 0.09681989722285689 7.354899398412554 0.17026947442640372 Q 7.354899398412554 0.24204974305714244 7.302316178369106 0.28962503738216716 Q 7.249732958325658 0.33720033170719166 7.164598221112456 0.33720033170719166 Q 7.077794175326447 0.33720033170719166 7.025210955282998 0.28962503738216716 M 7.326521152674821 0.4240043774932015 L 7.326521152674821 1.3604864868384228 L 6.999336672404476 1.3604864868384228 L 6.999336672404476 0.4240043774932015 L 7.326521152674821 0.4240043774932015 M 8.399858851859685 0.5233282375752705 Q 8.495009440509733 0.6309986405213788 8.495009440509733 0.8146225835302456 L 8.495009440509733 1.3604864868384228 L 8.16782496023939 1.3604864868384228 L 8.16782496023939 0.8580246064232506 Q 8.16782496023939 0.7778977949284723 8.126092245919192 0.7319918091762556 Q 8.084359531598995 0.6860858234240389 8.014248571541064 0.6860858234240389 Q 7.940798994337517 0.6860858234240389 7.89906628001732 0.7319918091762556 Q 7.8573335656971235 0.7778977949284723 7.8573335656971235 0.8580246064232506 L 7.8573335656971235 1.3604864868384228 L 7.530149085426778 1.3604864868384228 L 7.530149085426778 0.4240043774932015 L 7.8573335656971235 0.4240043774932015 L 7.8573335656971235 0.557549063317832 Q 7.900735588590128 0.49411533755113257 7.974185165793675 0.4548865860901473 Q 8.047634742997221 0.41565783462916217 8.142785331647271 0.41565783462916217 Q 8.304708263209635 0.41565783462916217 8.399858851859685 0.5233282375752705 M 9.244485789820413 1.0817119551795067 L 9.244485789820413 1.3604864868384228 L 9.102594561131744 1.3604864868384228 Q 8.743693217978048 1.3604864868384228 8.743693217978048 1.004923760830344 L 8.743693217978048 0.6961016748608861 L 8.628510926454306 0.6961016748608861 L 8.628510926454306 0.4240043774932015 L 8.743693217978048 0.4240043774932015 L 8.743693217978048 0.19697841159132978 L 9.072547006821202 0.19697841159132978 L 9.072547006821202 0.4240043774932015 L 9.242816481247605 0.4240043774932015 L 9.242816481247605 0.6961016748608861 L 9.072547006821202 0.6961016748608861 L 9.072547006821202 1.0099316865487677 Q 9.072547006821202 1.048325783723349 9.090074746835684 1.0650188694514278 Q 9.107602486850167 1.0817119551795067 9.149335201170365 1.0817119551795067 L 9.244485789820413 1.0817119551795067 M 9.43732516384694 0.28962503738216716 Q 9.384741943803492 0.24204974305714244 9.384741943803492 0.17026947442640372 Q 9.384741943803492 0.09681989722285689 9.43732516384694 0.04840994861142822 Q 9.489908383890388 -2.220446049250313e-16 9.576712429676398 -2.220446049250313e-16 Q 9.6618471668896 -2.220446049250313e-16 9.714430386933048 0.04840994861142822 Q 9.767013606976496 0.09681989722285689 9.767013606976496 0.17026947442640372 Q 9.767013606976496 0.24204974305714244 9.714430386933048 0.28962503738216716 Q 9.6618471668896 0.33720033170719166 9.576712429676398 0.33720033170719166 Q 9.489908383890388 0.33720033170719166 9.43732516384694 0.28962503738216716 M 9.738635361238762 0.4240043774932015 L 9.738635361238762 1.3604864868384228 L 9.411450880968419 1.3604864868384228 L 9.411450880968419 0.4240043774932015 L 9.738635361238762 0.4240043774932015 M 10.453906371556338 0.4507133146581276 Q 10.524851985900671 0.4891074118327089 10.563246083075253 0.5542104461722163 L 10.563246083075253 0.4240043774932015 L 10.890430563345598 0.4240043774932015 L 10.890430563345598 1.3504706354015754 Q 10.890430563345598 1.482346012653398 10.840351306161361 1.5883471070266986 Q 10.790272048977124 1.694348201399999 10.684270954603825 1.7577819271666986 Q 10.578269860230524 1.821215652933398 10.41634692866816 1.821215652933398 Q 10.199336814203136 1.821215652933398 10.06913074552412 1.7193878299921173 Q 9.938924676845106 1.6175600070508365 9.92056228254422 1.4422826069060088 L 10.24273883709614 1.4422826069060088 Q 10.252754688532987 1.4873539383718217 10.292818094280376 1.51239356696394 Q 10.332881500027765 1.537433195556058 10.396315225794465 1.537433195556058 Q 10.563246083075253 1.537433195556058 10.563246083075253 1.3504706354015754 L 10.563246083075253 1.230280418159408 Q 10.524851985900671 1.2953834524989154 10.453906371556338 1.3337775496734967 Q 10.382960757212002 1.372171646848078 10.287810168561952 1.372171646848078 Q 10.175966494183825 1.372171646848078 10.084989176965795 1.313745846799802 Q 9.994011859747765 1.2553200467515262 9.941428639704318 1.1459803352326101 Q 9.88884541966087 1.0366406237136938 9.88884541966087 0.8914107778794083 Q 9.88884541966087 0.7461809320451226 9.941428639704318 0.6376758748126103 Q 9.994011859747765 0.5291708175800981 10.084989176965795 0.4707450175318222 Q 10.175966494183825 0.4123192174835464 10.287810168561952 0.4123192174835464 Q 10.382960757212002 0.4123192174835464 10.453906371556338 0.4507133146581276 M 10.51400148017742 0.7495195491907384 Q 10.464756877279589 0.697770983433694 10.39297660864885 0.697770983433694 Q 10.319527031445302 0.697770983433694 10.271117082833873 0.7486848949043344 Q 10.222707134222446 0.7995988063749747 10.222707134222446 0.8914107778794083 Q 10.222707134222446 0.9815534408110338 10.271117082833873 1.034136660854482 Q 10.319527031445302 1.0867198808979304 10.39297660864885 1.0867198808979304 Q 10.464756877279589 1.0867198808979304 10.51400148017742 1.034971315140886 Q 10.563246083075253 0.9832227493838417 10.563246083075253 0.8914107778794083 Q 10.563246083075253 0.8012681149477826 10.51400148017742 0.7495195491907384" fill="#fffdfa" fill-rule="nonzero"></path></g><g><path d=" M 0.42029264678898204 2.2301312994293885 L 0.42029264678898204 2.7205896635454128 L 0.37117664466005257 2.7205896635454128 L 0.37117664466005257 2.4911477678859852 L 0.10524857599056311 2.4911477678859852 L 0.10524857599056311 2.7205896635454128 L 0.05613257386163366 2.7205896635454128 L 0.05613257386163366 2.2301312994293885 L 0.10524857599056311 2.2301312994293885 L 0.10524857599056311 2.4504516518363006 L 0.37117664466005257 2.4504516518363006 L 0.37117664466005257 2.2301312994293885 L 0.42029264678898204 2.2301312994293885 M 0.588701674373257 2.2301312994293885 L 0.588701674373257 2.7205896635454128 L 0.5395856722443275 2.7205896635454128 L 0.5395856722443275 2.2301312994293885 L 0.588701674373257 2.2301312994293885 M 0.7707844516852643 2.7086614915998157 Q 0.7339474500885673 2.6918217194413256 0.7128977348904546 2.6616504609906975 Q 0.691848019692342 2.6314792025400693 0.6904447053458012 2.594291372356737 L 0.7423673361678124 2.594291372356737 Q 0.7458756220341645 2.6300758881935287 0.7739419089649813 2.65708968936444 Q 0.8020081958957981 2.684103490535351 0.8560357982376205 2.684103490535351 Q 0.9058534575398204 2.684103490535351 0.9349722302305428 2.6584930037109804 Q 0.9640910029212653 2.6328825168866103 0.9640910029212653 2.593589715183467 Q 0.9640910029212653 2.5620151423862976 0.9479528879360456 2.542719570121361 Q 0.9318147729508259 2.5234239978564244 0.9079584290596316 2.513951626017274 Q 0.8841020851684374 2.5044792541781233 0.842002654772212 2.4932527394057966 Q 0.7928866526432826 2.4799212531136585 0.7641187085391954 2.4672914239947907 Q 0.7353507644351082 2.4546615948759234 0.715002706410266 2.427998622291647 Q 0.6946546483854237 2.4013356497073715 0.6946546483854237 2.355727933444794 Q 0.6946546483854237 2.3178384460881913 0.7143010492369954 2.2880180162241985 Q 0.7339474500885673 2.2581975863602057 0.7697319659253588 2.241357814201715 Q 0.8055164817621502 2.224518042043225 0.851825855197998 2.224518042043225 Q 0.9198866010052288 2.224518042043225 0.9616352028148187 2.2578467577735704 Q 1.0033838046244088 2.291175473503915 1.0096987191838427 2.3437997614991968 L 0.9563727740152906 2.3437997614991968 Q 0.9514611738023977 2.3136285030485686 0.9233948868715809 2.2901229877440095 Q 0.8953285999407641 2.2666174724394503 0.8476159121583754 2.2666174724394503 Q 0.8034115102423389 2.2666174724394503 0.7739419089649813 2.2901229877440095 Q 0.7444723076876236 2.3136285030485686 0.7444723076876236 2.354324619098253 Q 0.7444723076876236 2.3851975347221517 0.7606104226728433 2.404142278400453 Q 0.776748537658063 2.4230870220787546 0.8009557101358924 2.4329102225045403 Q 0.825162882613722 2.442733422930326 0.8665606558366767 2.4539599377026526 Q 0.9142733436190654 2.4672914239947907 0.9437429448964231 2.4802720817002935 Q 0.9732125461737807 2.4932527394057966 0.9935606041986229 2.5199157119900724 Q 1.0139086622234652 2.5465786845743486 1.0139086622234652 2.5914847436636554 Q 1.0139086622234652 2.625865945153906 0.9956655757184343 2.6567388607778044 Q 0.9774224892134034 2.687611776401703 0.9416379733766118 2.7065565200800044 Q 0.9058534575398204 2.725501263758306 0.8560357982376205 2.725501263758306 Q 0.8076214532819614 2.725501263758306 0.7707844516852643 2.7086614915998157 M 1.4026418108811103 2.2301312994293885 L 1.4026418108811103 2.270827415479073 L 1.2665203192666485 2.270827415479073 L 1.2665203192666485 2.7205896635454128 L 1.2174043171377191 2.7205896635454128 L 1.2174043171377191 2.270827415479073 L 1.080581168349987 2.270827415479073 L 1.080581168349987 2.2301312994293885 L 1.4026418108811103 2.2301312994293885 M 1.5843847229998147 2.6935758623745016 Q 1.5289538063114514 2.6616504609906975 1.4970284049276472 2.604465401369158 Q 1.465103003543843 2.547280341747619 1.465103003543843 2.4750096529007655 Q 1.465103003543843 2.402738964053912 1.4970284049276472 2.3455539044323728 Q 1.5289538063114514 2.2883688448108335 1.5843847229998147 2.2564434434270293 Q 1.6398156396881778 2.224518042043225 1.7078763854954087 2.224518042043225 Q 1.7766387884759098 2.224518042043225 1.8320697051642731 2.2564434434270293 Q 1.8875006218526362 2.2883688448108335 1.9190751946498052 2.3455539044323728 Q 1.9506497674469743 2.402738964053912 1.9506497674469743 2.4750096529007655 Q 1.9506497674469743 2.547280341747619 1.9190751946498052 2.604465401369158 Q 1.8875006218526362 2.6616504609906975 1.8320697051642731 2.6935758623745016 Q 1.7766387884759098 2.725501263758306 1.7078763854954087 2.725501263758306 Q 1.6398156396881778 2.725501263758306 1.5843847229998147 2.6935758623745016 M 1.8061083897532675 2.6574405179510747 Q 1.8496111344960338 2.6321808597133396 1.8748707927337689 2.5848190005175864 Q 1.900130450971504 2.5374571413218328 1.900130450971504 2.4750096529007655 Q 1.900130450971504 2.412562164479698 1.8748707927337689 2.36555113387058 Q 1.8496111344960338 2.3185401032614616 1.8061083897532675 2.2932804450237265 Q 1.7626056450105014 2.2680207867859914 1.7078763854954087 2.2680207867859914 Q 1.6531471259803159 2.2680207867859914 1.6096443812375498 2.2932804450237265 Q 1.5661416364947836 2.3185401032614616 1.5408819782570484 2.36555113387058 Q 1.5156223200193133 2.412562164479698 1.5156223200193133 2.4750096529007655 Q 1.5156223200193133 2.5374571413218328 1.5408819782570484 2.5848190005175864 Q 1.5661416364947836 2.6321808597133396 1.6096443812375498 2.6574405179510747 Q 1.6531471259803159 2.68270017618881 1.7078763854954087 2.68270017618881 Q 1.7626056450105014 2.68270017618881 1.8061083897532675 2.6574405179510747 M 2.3085123987230123 2.7205896635454128 L 2.1871257077472297 2.51570576895045 L 2.096611932395345 2.51570576895045 L 2.096611932395345 2.7205896635454128 L 2.047495930266416 2.7205896635454128 L 2.047495930266416 2.2301312994293885 L 2.194843936653204 2.2301312994293885 Q 2.2769378259258435 2.2301312994293885 2.319388084908704 2.2694241011325325 Q 2.361838343891564 2.308716902835676 2.361838343891564 2.372567705603284 Q 2.361838343891564 2.425893650771836 2.331316256854301 2.4634323095418034 Q 2.3007941698170375 2.500970968311771 2.241153310089052 2.5121974830840976 L 2.3674516012777276 2.7205896635454128 L 2.3085123987230123 2.7205896635454128 M 2.096611932395345 2.4757113100740358 L 2.1955455938264747 2.4757113100740358 Q 2.253081482034649 2.4757113100740358 2.2822002547253715 2.447645023143219 Q 2.311319027416094 2.419578736212402 2.311319027416094 2.372567705603284 Q 2.311319027416094 2.324153360647625 2.283252740485277 2.297841216649984 Q 2.2551864535544603 2.2715290726523434 2.194843936653204 2.2715290726523434 L 2.096611932395345 2.2715290726523434 L 2.096611932395345 2.4757113100740358 M 2.790533403851668 2.2301312994293885 L 2.633362197039094 2.5297389124158585 L 2.633362197039094 2.7205896635454128 L 2.5842461949101643 2.7205896635454128 L 2.5842461949101643 2.5297389124158585 L 2.4256716737510495 2.2301312994293885 L 2.4811025904394124 2.2301312994293885 L 2.608804195974629 2.4848328533265516 L 2.7358041443365755 2.2301312994293885 L 2.790533403851668 2.2301312994293885 M 3.128741069125094 2.790755380872455 L 3.0796250669961642 2.790755380872455 L 3.0796250669961642 2.1662804966617806 L 3.128741069125094 2.1662804966617806 L 3.128741069125094 2.790755380872455 M 3.7447772239242334 2.2301312994293885 L 3.7447772239242334 2.270827415479073 L 3.6086557323097717 2.270827415479073 L 3.6086557323097717 2.7205896635454128 L 3.559539730180842 2.7205896635454128 L 3.559539730180842 2.270827415479073 L 3.4227165813931104 2.270827415479073 L 3.4227165813931104 2.2301312994293885 L 3.7447772239242334 2.2301312994293885 M 4.193851519058968 2.2301312994293885 L 4.193851519058968 2.7205896635454128 L 4.144735516930038 2.7205896635454128 L 4.144735516930038 2.4911477678859852 L 3.8788074482605492 2.4911477678859852 L 3.8788074482605492 2.7205896635454128 L 3.8296914461316196 2.7205896635454128 L 3.8296914461316196 2.2301312994293885 L 3.8788074482605492 2.2301312994293885 L 3.8788074482605492 2.4504516518363006 L 4.144735516930038 2.4504516518363006 L 4.144735516930038 2.2301312994293885 L 4.193851519058968 2.2301312994293885 M 4.362260546643244 2.2701257583058028 L 4.362260546643244 2.4532582805293823 L 4.548199697559905 2.4532582805293823 L 4.548199697559905 2.493954396579067 L 4.362260546643244 2.493954396579067 L 4.362260546643244 2.679893547495728 L 4.569249412758017 2.679893547495728 L 4.569249412758017 2.7205896635454128 L 4.313144544514314 2.7205896635454128 L 4.313144544514314 2.229429642256118 L 4.569249412758017 2.229429642256118 L 4.569249412758017 2.2701257583058028 L 4.362260546643244 2.2701257583058028 M 4.957259320061769 2.604114572782523 L 4.734132338961775 2.604114572782523 L 4.691331251392279 2.7205896635454128 L 4.6394086205702685 2.7205896635454128 L 4.818331199754226 2.2364462139888226 L 4.873762116442589 2.2364462139888226 L 5.051983038453276 2.7205896635454128 L 5.000060407631265 2.7205896635454128 L 4.957259320061769 2.604114572782523 M 4.94252451942309 2.5634184567328386 L 4.845695829511772 2.2981920452366196 L 4.7488671396004545 2.5634184567328386 L 4.94252451942309 2.5634184567328386 M 5.424547237581955 2.2301312994293885 L 5.424547237581955 2.270827415479073 L 5.288425745967493 2.270827415479073 L 5.288425745967493 2.7205896635454128 L 5.239309743838564 2.7205896635454128 L 5.239309743838564 2.270827415479073 L 5.102486595050832 2.270827415479073 L 5.102486595050832 2.2301312994293885 L 5.424547237581955 2.2301312994293885 M 5.7704779282459375 2.7205896635454128 L 5.649091237270155 2.51570576895045 L 5.55857746191827 2.51570576895045 L 5.55857746191827 2.7205896635454128 L 5.509461459789341 2.7205896635454128 L 5.509461459789341 2.2301312994293885 L 5.656809466176129 2.2301312994293885 Q 5.738903355448769 2.2301312994293885 5.781353614431628 2.2694241011325325 Q 5.823803873414489 2.308716902835676 5.823803873414489 2.372567705603284 Q 5.823803873414489 2.425893650771836 5.793281786377226 2.4634323095418034 Q 5.762759699339963 2.500970968311771 5.703118839611977 2.5121974830840976 L 5.829417130800652 2.7205896635454128 L 5.7704779282459375 2.7205896635454128 M 5.55857746191827 2.4757113100740358 L 5.6575111233493995 2.4757113100740358 Q 5.715047011557574 2.4757113100740358 5.744165784248296 2.447645023143219 Q 5.773284556939019 2.419578736212402 5.773284556939019 2.372567705603284 Q 5.773284556939019 2.324153360647625 5.745218270008202 2.297841216649984 Q 5.717151983077385 2.2715290726523434 5.656809466176129 2.2715290726523434 L 5.55857746191827 2.2715290726523434 L 5.55857746191827 2.4757113100740358 M 5.977449321452588 2.2701257583058028 L 5.977449321452588 2.4532582805293823 L 6.16338847236925 2.4532582805293823 L 6.16338847236925 2.493954396579067 L 5.977449321452588 2.493954396579067 L 5.977449321452588 2.679893547495728 L 6.184438187567362 2.679893547495728 L 6.184438187567362 2.7205896635454128 L 5.9283333193236585 2.7205896635454128 L 5.9283333193236585 2.229429642256118 L 6.184438187567362 2.229429642256118 L 6.184438187567362 2.2701257583058028 L 5.977449321452588 2.2701257583058028 M 6.547880843443525 2.790755380872455 L 6.498764841314595 2.790755380872455 L 6.498764841314595 2.1662804966617806 L 6.547880843443525 2.1662804966617806 L 6.547880843443525 2.790755380872455 M 6.886060757627577 2.3455539044323728 Q 6.917635330424746 2.2883688448108335 6.972364589939839 2.2564434434270293 Q 7.027093849454932 2.224518042043225 7.094452938088892 2.224518042043225 Q 7.176546827361531 2.224518042043225 7.235135201329611 2.2634600151597337 Q 7.293723575297692 2.302401988276242 7.320386547881967 2.3732693627765546 L 7.262850659673793 2.3732693627765546 Q 7.24180094447568 2.3234517034743547 7.19864902831955 2.295385416543538 Q 7.1554971121634185 2.267319129612721 7.094452938088892 2.267319129612721 Q 7.04042533574707 2.267319129612721 6.997273419590939 2.292578787850456 Q 6.954121503434808 2.3178384460881913 6.9295635023703435 2.3652003052839445 Q 6.905005501305879 2.412562164479698 6.905005501305879 2.4750096529007655 Q 6.905005501305879 2.5374571413218328 6.9295635023703435 2.584468171930951 Q 6.954121503434808 2.6314792025400693 6.997273419590939 2.6567388607778044 Q 7.04042533574707 2.6819985190155395 7.094452938088892 2.6819985190155395 Q 7.1554971121634185 2.6819985190155395 7.19864902831955 2.654283060671358 Q 7.24180094447568 2.6265676023271762 7.262850659673793 2.577451600198247 L 7.320386547881967 2.577451600198247 Q 7.293723575297692 2.647617317525289 7.234784372742976 2.6862084620551623 Q 7.1758451701882615 2.7247996065850355 7.094452938088892 2.7247996065850355 Q 7.027093849454932 2.7247996065850355 6.972364589939839 2.6928742052012313 Q 6.917635330424746 2.660948803817427 6.886060757627577 2.604114572782523 Q 6.854486184830408 2.547280341747619 6.854486184830408 2.4750096529007655 Q 6.854486184830408 2.402738964053912 6.886060757627577 2.3455539044323728 M 7.521759415762245 2.6935758623745016 Q 7.4663284990738825 2.6616504609906975 7.434403097690078 2.604465401369158 Q 7.402477696306274 2.547280341747619 7.402477696306274 2.4750096529007655 Q 7.402477696306274 2.402738964053912 7.434403097690078 2.3455539044323728 Q 7.4663284990738825 2.2883688448108335 7.521759415762245 2.2564434434270293 Q 7.577190332450609 2.224518042043225 7.645251078257839 2.224518042043225 Q 7.714013481238341 2.224518042043225 7.769444397926704 2.2564434434270293 Q 7.824875314615068 2.2883688448108335 7.856449887412237 2.3455539044323728 Q 7.888024460209405 2.402738964053912 7.888024460209405 2.4750096529007655 Q 7.888024460209405 2.547280341747619 7.856449887412237 2.604465401369158 Q 7.824875314615068 2.6616504609906975 7.769444397926704 2.6935758623745016 Q 7.714013481238341 2.725501263758306 7.645251078257839 2.725501263758306 Q 7.577190332450609 2.725501263758306 7.521759415762245 2.6935758623745016 M 7.743483082515699 2.6574405179510747 Q 7.786985827258465 2.6321808597133396 7.8122454854962 2.5848190005175864 Q 7.837505143733935 2.5374571413218328 7.837505143733935 2.4750096529007655 Q 7.837505143733935 2.412562164479698 7.8122454854962 2.36555113387058 Q 7.786985827258465 2.3185401032614616 7.743483082515699 2.2932804450237265 Q 7.699980337772932 2.2680207867859914 7.645251078257839 2.2680207867859914 Q 7.590521818742747 2.2680207867859914 7.547019073999981 2.2932804450237265 Q 7.503516329257215 2.3185401032614616 7.47825667101948 2.36555113387058 Q 7.452997012781744 2.412562164479698 7.452997012781744 2.4750096529007655 Q 7.452997012781744 2.5374571413218328 7.47825667101948 2.5848190005175864 Q 7.503516329257215 2.6321808597133396 7.547019073999981 2.6574405179510747 Q 7.590521818742747 2.68270017618881 7.645251078257839 2.68270017618881 Q 7.699980337772932 2.68270017618881 7.743483082515699 2.6574405179510747 M 8.464102472372545 2.2364462139888226 L 8.464102472372545 2.7205896635454128 L 8.414986470243615 2.7205896635454128 L 8.414986470243615 2.333976561073411 L 8.242378805619092 2.7205896635454128 L 8.2065942897823 2.7205896635454128 L 8.033986625157777 2.3353798754199517 L 8.033986625157777 2.7205896635454128 L 7.984870623028847 2.7205896635454128 L 7.984870623028847 2.2364462139888226 L 8.036793253850858 2.2364462139888226 L 8.224135719114061 2.656037203604534 L 8.411478184377263 2.2364462139888226 L 8.464102472372545 2.2364462139888226 M 9.061900337151236 2.2364462139888226 L 9.061900337151236 2.7205896635454128 L 9.012784335022307 2.7205896635454128 L 9.012784335022307 2.333976561073411 L 8.840176670397783 2.7205896635454128 L 8.804392154560992 2.7205896635454128 L 8.631784489936468 2.3353798754199517 L 8.631784489936468 2.7205896635454128 L 8.582668487807538 2.7205896635454128 L 8.582668487807538 2.2364462139888226 L 8.63459111862955 2.2364462139888226 L 8.821933583892752 2.656037203604534 L 9.009276049155954 2.2364462139888226 L 9.061900337151236 2.2364462139888226 M 9.227477383195348 2.2301312994293885 L 9.227477383195348 2.538860455668374 Q 9.227477383195348 2.6118328016884975 9.262209413272233 2.6469156603520188 Q 9.29694144334912 2.6819985190155395 9.357283960250376 2.6819985190155395 Q 9.417626477151632 2.6819985190155395 9.451656850055247 2.6472664889386537 Q 9.485687222958862 2.612534458861768 9.485687222958862 2.538860455668374 L 9.485687222958862 2.2301312994293885 L 9.534803225087792 2.2301312994293885 L 9.534803225087792 2.5381587984951035 Q 9.534803225087792 2.6314792025400693 9.485336394372228 2.6784902331491875 Q 9.435869563656663 2.725501263758306 9.356582303077106 2.725501263758306 Q 9.277295042497547 2.725501263758306 9.227828211781983 2.6784902331491875 Q 9.178361381066418 2.6314792025400693 9.178361381066418 2.5381587984951035 L 9.178361381066418 2.2301312994293885 L 9.227477383195348 2.2301312994293885 M 10.02105918349711 2.7205896635454128 L 9.97194318136818 2.7205896635454128 L 9.700401855312528 2.3080152456624052 L 9.700401855312528 2.7205896635454128 L 9.651285853183598 2.7205896635454128 L 9.651285853183598 2.2301312994293885 L 9.700401855312528 2.2301312994293885 L 9.97194318136818 2.6420040601391257 L 9.97194318136818 2.2301312994293885 L 10.02105918349711 2.2301312994293885 L 10.02105918349711 2.7205896635454128 M 10.188737089788534 2.2301312994293885 L 10.188737089788534 2.7205896635454128 L 10.139621087659604 2.7205896635454128 L 10.139621087659604 2.2301312994293885 L 10.188737089788534 2.2301312994293885 M 10.59429767678717 2.2301312994293885 L 10.59429767678717 2.270827415479073 L 10.458176185172707 2.270827415479073 L 10.458176185172707 2.7205896635454128 L 10.409060183043778 2.7205896635454128 L 10.409060183043778 2.270827415479073 L 10.272237034256046 2.270827415479073 L 10.272237034256046 2.2301312994293885 L 10.59429767678717 2.2301312994293885 M 11.003377513045491 2.2301312994293885 L 10.846206306232915 2.5297389124158585 L 10.846206306232915 2.7205896635454128 L 10.797090304103987 2.7205896635454128 L 10.797090304103987 2.5297389124158585 L 10.638515782944872 2.2301312994293885 L 10.693946699633235 2.2301312994293885 L 10.821648305168452 2.4848328533265516 L 10.948648253530397 2.2301312994293885 L 11.003377513045491 2.2301312994293885" fill="#b7b7a5" fill-rule="nonzero"></path></g><g clip-path="url(&quot;#SvgjsClipPath1003&quot;)"><g clip-path="url(&quot;#SvgjsClipPath1000&quot;)"><path d=" M -4.294955096158863 1.7204237447987702 L -4.156207629891976 1.5816762785318814 L -3.444682161856643 2.2932017465672123 C -3.1610964118713105 2.5745597989178073 -2.7036712378710943 2.5745597989178073 -2.4200854878857623 2.2932017465672123 L -0.9889490351328822 0.8620652938143297 L -0.850201568865991 1.0008127600812187 L -2.2813380216188714 2.431949212834101 C -2.6415023250120173 2.7900564608897422 -3.223265324730391 2.7900564608897422 -3.5834296281235263 2.431949212834101 Z" fill="#cac32d" transform="matrix(1,0,0,1,0,0)" fill-rule="evenodd"></path></g><g clip-path="url(&quot;#SvgjsClipPath1000&quot;)"><path d=" M -3.8437832652910053 1.2692519139309122 L -3.7050357990241145 1.130181026996734 L -2.5429853414555006 2.292231484565346 C -2.259510171214262 2.5735518577832375 -1.8021872583931522 2.5735518577832375 -1.5187120881519132 2.292231484565346 L -0.5387474662668881 1.3122668626803213 L -0.3999999999999968 1.4513377496144995 L -1.3799646218850228 2.430978950832235 C -1.740128925278165 2.789086198887876 -2.321891924996539 2.789086198887876 -2.6820562283896776 2.430978950832235 Z" fill="#cac32d" transform="matrix(1,0,0,1,0,0)" fill-rule="evenodd"></path></g><g clip-path="url(&quot;#SvgjsClipPath1000&quot;)"><path d=" M -5.648794009429723 1.2692519139309122 L -5.510046543162833 1.130181026996734 L -4.347996085594223 2.292231484565346 C -4.06452091535298 2.5735518577832375 -3.6071980025318737 2.5735518577832375 -3.3237228322906316 2.292231484565346 L -1.4410911280026033 0.40959978027731697 L -1.3023436617357165 0.5486706672114943 L -3.184975366023741 2.430978950832235 C -3.54513966941688 2.789086198887876 -4.126902669135253 2.789086198887876 -4.4870669725283925 2.430978950832235 Z" fill="#cac32d" transform="matrix(1,0,0,1,0,0)" fill-rule="evenodd"></path></g><g clip-path="url(&quot;#SvgjsClipPath1000&quot;)"><path d=" M -0.40000000000000036 1.4513377496144995 L -0.5387474662668916 1.5900852158813883 L -1.7004745031682154 0.42803475831277715 C -1.9840602531535438 0.14667670596218182 -2.4414854271537636 0.14667670596218182 -2.7250711771390925 0.42803475831277715 L -4.60737946075983 2.310666462600806 L -4.746450347694012 2.1719189963339165 L -2.863818643405983 0.2892872920458883 C -2.5036543400128406 -0.06881995600975298 -1.9218913402944668 -0.06881995600975298 -1.561727036901324 0.2892872920458883 Z" fill="#cac32d" transform="matrix(1,0,0,1,0,0)" fill-rule="evenodd"></path></g><g clip-path="url(&quot;#SvgjsClipPath1000&quot;)"><path d=" M -1.7538389132708647 0.9998424980793541 L -1.8925863795377555 1.138589964346243 L -2.6041118475730887 0.42706449631091176 C -2.887697597558421 0.14570644396031637 -3.345122771558637 0.14570644396031637 -3.628708521543966 0.42706449631091176 L -5.059521553629563 1.858524369731083 L -5.198592440563744 1.7194534827969048 L -3.767455987810864 0.28831703004402287 C -3.4072916844177255 -0.06979021801161842 -2.8255286846993517 -0.06979021801161842 -2.465364381306209 0.28831703004402287 Z" fill="#cac32d" transform="matrix(1,0,0,1,0,0)" fill-rule="evenodd"></path></g><g clip-path="url(&quot;#SvgjsClipPath1000&quot;)"><path d=" M -2.205010744138723 1.4513377496144995 L -2.3437582104056136 1.5900852158813883 L -3.5058086679742235 0.42803475831277715 C -3.789283838215466 0.14671438509488516 -4.246606751036572 0.14671438509488516 -4.530081921277814 0.42803475831277715 L -5.51004654316284 1.4079993801978021 L -5.64879400942973 1.2692519139309122 L -4.668829387544705 0.2892872920458883 C -4.308665084151566 -0.06881995600975298 -3.726902084433193 -0.06881995600975298 -3.36673778104005 0.2892872920458883 Z" fill="#cac32d" transform="matrix(1,0,0,1,0,0)" fill-rule="evenodd"></path></g></g></g><defs><clipPath id="SvgjsClipPath1003"><path d=" M -5.648794009429723 0.020848138196195576 h 5.248794009429723 v 2.6788933871530216 h -5.248794009429723 Z"></path></clipPath><clipPath id="SvgjsClipPath1000"><path d=" M -5.648794009429723 0.020848138196195576 L -0.40000000000000036 0.020848138196195576 L -0.40000000000000036 2.699741525349217 L -5.648794009429723 2.699741525349217 Z"></path></clipPath></defs></svg>